<?xml version="1.0" encoding="UTF-8"?>
<svg id="Layer_1" data-name="Layer 1" xmlns="http://www.w3.org/2000/svg" viewBox="0 0 8503.94 1984.25">
  <defs>
    <style>
      .cls-1 {
        fill: #b78364;
      }

      .cls-2 {
        fill: #505b5e;
      }
    </style>
  </defs>
  <g>
    <g>
      <path class="cls-1" d="m2571.2,603.29c6.66-9.99,11.65-19.15,14.98-27.47,3.33-8.32,5-17.66,5-28.03,0-7.4-1.11-15.54-3.33-24.42l-6.66-6.66h-311.92v102.13h160.92l-148.71,210.91c-6.66,9.99-11.66,19.15-14.99,27.47-3.33,8.32-5,17.67-5,28.03,0,8.52,1.11,16.65,3.33,24.42l6.66,6.66h320.8v-102.12h-169.81l148.72-210.91Z"/>
      <path class="cls-1" d="m2935,519.73c-20.17-2-38.57-3.02-55.22-3.02-40.33,0-73.92,3.39-100.74,10.16-26.83,6.78-49.4,20.58-67.71,41.44-18.31,20.86-30.99,51.24-38.02,91.12l-44.4,256.89h117.66l15.41-92.22h104.48v92.22h117.66v-294.22c0-45.37,1.47-74.65,4.44-87.83l-1.11-6.58c-14.8-3.3-32.29-5.95-52.45-7.96Zm-157.62,212.16l11.37-68.07c1.85-11.71,5.18-21.22,9.99-28.55,4.81-7.31,11.56-12.8,20.26-16.47,8.69-3.65,20.06-5.49,34.13-5.49,5.33,0,10.31.16,15.08.41-1.16,10.64-1.76,22.2-1.76,34.72v83.44h-89.07Z"/>
      <polygon class="cls-1" points="3301.59 516.71 3301.59 663.67 3152.85 516.71 3059.6 516.71 3059.6 916.33 3177.26 916.33 3177.26 693.47 3301.59 816.73 3301.59 916.33 3419.25 916.33 3419.25 516.71 3301.59 516.71"/>
      <path class="cls-2" d="m3718.29,527.4c-24.68-7.1-55.84-10.69-93.51-10.69h-106.03v399.61h106.03c41.94,0,75.43-4.62,100.48-13.91,25.05-9.29,43.77-25.68,56.2-49.22,12.43-23.53,18.63-56.83,18.63-99.93v-74.11c0-47.02-7.43-82.28-22.39-105.81-14.96-23.53-34.78-38.85-59.42-45.95Zm59.69,226.47c0,35.95-4.96,64.02-14.87,84.19-9.91,20.17-25.42,34.79-46.57,43.89-21.2,9.06-49.64,13.64-85.38,13.64h-90.29v-358.1h90.29c40.42,0,71.3,5.6,92.63,16.9,21.38,11.25,35.74,26.94,43.13,47.12,7.39,20.17,11.06,45.85,11.06,77.09v75.27Z"/>
      <path class="cls-2" d="m4135.07,540.68c-22.53-15.97-57.09-23.97-103.69-23.97s-79.91,7.61-102.24,22.81c-22.34,15.21-36.32,33.78-41.94,55.72-5.63,21.95-8.45,48.9-8.45,80.85v74.5c0,38.11,3.69,68.92,11.07,92.39,7.38,23.49,22.14,41.58,44.28,54.29,22.13,12.7,54.56,19.05,97.28,19.05s75.24-6.35,97.58-19.05c22.33-12.71,37.28-30.8,44.86-54.29,7.57-23.48,11.36-54.28,11.36-92.39v-69.3c0-33.11-2.72-60.83-8.16-83.16-5.44-22.32-19.42-41.48-41.94-57.46Zm27.96,211.07c0,33.88-3.11,60.83-9.32,80.85-6.22,20.02-18.74,35.51-37.57,46.49-18.85,10.97-47.1,16.46-84.76,16.46s-65.83-5.49-84.47-16.46c-18.64-10.97-30.97-26.46-36.99-46.49-6.03-20.01-9.03-46.97-9.03-80.85v-72.18c0-30.03,2.23-54.57,6.7-73.63,4.46-19.05,16.11-35.32,34.95-48.8,18.83-13.47,48.44-20.21,88.84-20.21s70.58,6.74,89.42,20.21c18.83,13.48,30.58,29.84,35.24,49.09,4.66,19.25,6.99,43.7,6.99,73.34v72.18Z"/>
      <path class="cls-2" d="m4520.13,540.68c-22.53-15.97-57.09-23.97-103.69-23.97s-79.91,7.61-102.24,22.81c-22.34,15.21-36.32,33.78-41.94,55.72-5.63,21.95-8.45,48.9-8.45,80.85v74.5c0,38.11,3.69,68.92,11.07,92.39,7.38,23.49,22.14,41.58,44.28,54.29,22.13,12.7,54.56,19.05,97.28,19.05s75.24-6.35,97.58-19.05c22.33-12.71,37.28-30.8,44.86-54.29,7.57-23.48,11.36-54.28,11.36-92.39v-69.3c0-33.11-2.72-60.83-8.16-83.16-5.44-22.32-19.42-41.48-41.94-57.46Zm27.96,211.07c0,33.88-3.11,60.83-9.32,80.85-6.22,20.02-18.74,35.51-37.57,46.49-18.85,10.97-47.1,16.46-84.76,16.46s-65.83-5.49-84.47-16.46c-18.64-10.97-30.97-26.46-36.99-46.49-6.03-20.01-9.03-46.97-9.03-80.85v-72.18c0-30.03,2.23-54.57,6.7-73.63,4.46-19.05,16.11-35.32,34.95-48.8,18.83-13.47,48.44-20.21,88.84-20.21s70.58,6.74,89.42,20.21c18.83,13.48,30.58,29.84,35.24,49.09,4.66,19.25,6.99,43.7,6.99,73.34v72.18Z"/>
      <path class="cls-2" d="m4873.16,526.52c-15.14-6.54-35.74-9.81-61.76-9.81h-140.4v399.61h22.16v-147.6h109.52c27.57,0,49.28,6.3,65.24,18.96,15.92,12.65,23.86,32.22,23.86,58.7v69.95h22.16v-71.72c0-30.02-8.86-52.39-26.52-67.01-10.78-8.92-24.45-15.08-41.06-18.58-3.12-.65-6.42-1.22-9.77-1.68,3.4-.23,6.65-.61,9.77-1.03,12.98-1.73,23.77-4.81,32.35-9.25,14.13-7.28,24.13-18.45,29.96-33.48,5.83-15.04,8.76-34.98,8.76-59.91v-29.65c0-27.27-3.58-48.7-10.78-64.3-7.2-15.6-18.35-26.66-33.49-33.2Zm22.71,129.53c0,24.51-3.3,43.38-9.91,56.64-6.61,13.21-16.01,22.32-28.26,27.27-12.2,4.95-28.22,7.38-48.04,7.38h-116.49v-209.85h115.35c22.89,0,40.65,3.04,53.27,9.2,12.62,6.12,21.47,15.5,26.52,28.16,5.05,12.66,7.57,29.84,7.57,51.55v29.65Z"/>
      <path class="cls-2" d="m5221.52,761.27c-6.99-12.51-16.41-22.32-28.25-29.45-11.85-7.12-27.29-13.95-46.31-20.5l-65.83-23.67c-11.27-3.85-21.46-8.75-30.58-14.73-9.13-5.96-16.7-13.95-22.72-23.96-6.03-10.01-9.03-22.14-9.03-36.38,0-19.25,3-34.36,9.03-45.34,6.02-10.97,15.05-18.77,27.09-23.38,12.03-4.62,27.96-6.93,47.77-6.93s38.35,1.83,56.8,5.49c18.44,3.66,35.44,8.76,50.98,15.3l4.08-18.48c-20.97-8.85-40.2-14.82-57.67-17.9-17.47-3.08-36.51-4.62-57.09-4.62-22.92,0-41.85,3.18-56.8,9.53-14.95,6.35-26.41,16.56-34.37,30.61-7.96,14.06-11.94,32.44-11.94,55.15,0,18.1,3.79,33.69,11.36,46.77,7.58,13.09,17.19,23.49,28.84,31.18,11.65,7.71,25.05,14.06,40.2,19.05l62.33,22.52c17.86,6.55,31.65,12.61,41.36,18.19,9.7,5.58,17.08,13.19,22.14,22.81,5.04,9.63,7.57,22.52,7.57,38.69,0,19.25-3.7,35.14-11.07,47.64-7.38,12.51-18.16,21.85-32.33,28-14.18,6.16-31.56,9.24-52.14,9.24s-43.02-2.31-66.12-6.93c-23.11-4.62-42.62-10.19-58.54-16.74l-4.66,18.48c21.35,8.47,42.53,14.83,63.49,19.06,20.97,4.23,43.11,6.35,66.41,6.35,25.63,0,47.09-4.04,64.37-12.13,17.28-8.08,30.29-19.92,39.03-35.51,8.74-15.59,13.11-35.13,13.11-58.62,0-20.01-3.49-36.28-10.48-48.8Z"/>
    </g>
    <g>
      <path class="cls-2" d="m2440.2,1502.74c-5.91,0-10.78,2.07-14.62,6.2-3.84,4.14-5.76,8.86-5.76,14.18s1.92,9.9,5.76,13.74c3.84,3.84,8.71,5.76,14.62,5.76,5.32,0,9.9-1.92,13.74-5.76,3.84-3.84,5.76-8.42,5.76-13.74s-1.92-10.05-5.76-14.18c-3.84-4.14-8.42-6.2-13.74-6.2Z"/>
      <path class="cls-2" d="m2627.2,1139.18v208.27c0,20.09-4.58,34.56-13.74,43.43-9.16,8.86-23.78,13.29-43.87,13.29h-275.62c-20.09,0-34.72-4.43-43.87-13.29-9.16-8.86-13.74-23.04-13.74-42.54v-132.94l-29.25,19.5v111.66c0,57.9,27.77,86.85,83.31,86.85h277.4c59.08,0,88.62-28.95,88.62-86.85v-207.38h-29.24Z"/>
      <path class="cls-2" d="m2769.01,1433.41l-29.25,16.84v-430.71h29.25v413.88Z"/>
      <path class="cls-2" d="m3731.45,1139.2v208.26c0,20.1-4.59,34.55-13.72,43.4-9.18,8.9-23.77,13.31-43.86,13.31h-626.6v-264.96h-107.22c-58.5,0-87.72,28.03-87.72,84.19v126.72c0,55.52,29.23,83.27,87.72,83.27h78v34.59c0,62.03-35.47,93.05-106.35,93.05-12.39,0-21.24-.6-26.57-1.79l19.5,28.4c2.94.55,7.66.87,14.18.87,30.69,0,56.39-6.19,77.08-18.63,34.27-20.1,51.39-54.92,51.39-104.56v-31.93h625.68c58.5,0,87.77-29.23,87.77-87.73v-206.47h-29.27Zm-713.41,264.96h-85.06c-15.97,0-28.54-4.72-37.67-14.18-9.18-9.45-13.76-22.44-13.76-39v-128.51c0-36.02,17.16-54.05,51.43-54.05h85.06v235.74Z"/>
      <path class="cls-2" d="m3610.58,1508.96c-3.81-4.13-8.12-6.19-12.85-6.19-5.92,0-10.92,2.06-15.05,6.19-4.13,4.13-6.24,8.85-6.24,14.18s2.11,9.91,6.24,13.72c4.13,3.85,9.13,5.78,15.05,5.78,5.32,0,9.77-1.93,13.31-5.78,3.53-3.81,5.32-8.4,5.32-13.72s-1.93-10.05-5.78-14.18Z"/>
      <path class="cls-2" d="m3890.98,1089.56c-19.5,0-29.23-8.85-29.23-26.57s10.32-26.61,31.02-26.61h15.05v-16.84h-20.37c-12.98,0-23.63,3.99-31.89,11.97-8.3,7.98-12.43,18.17-12.43,30.6,0,11.79,3.26,20.97,9.73,27.44h-28.35v16.84h100.16v-16.84h-33.68Z"/>
      <path class="cls-2" d="m4231.33,1019.54v336.77c0,24.23-6.38,43.13-19.09,56.71-12.71,13.58-30.28,20.37-52.72,20.37h-316.4v-29.23h118.74l-104.56-264.96h31.89l103.69,264.96h81.53v-384.62h29.27v384.62h53.18c30.74,0,46.11-16.56,46.11-49.64v-334.98h28.36Z"/>
      <path class="cls-1" d="m4716.78,1151.1h100.47l-.83,279.82c0,17.99-2.98,34.32-8.93,48.99-5.95,14.66-13.98,27.74-24.08,39.23-10.11,11.48-21.87,21.38-35.29,29.68-13.43,8.3-27.47,15.08-42.14,20.34-14.67,5.26-29.55,9.2-44.63,11.83-15.09,2.63-29.54,3.94-43.38,3.94-29.07,0-55.71-3.73-79.92-11.21-24.22-7.47-45.12-18.13-62.69-31.97-17.58-13.84-31.21-30.45-40.89-49.82-9.69-19.38-14.53-41.1-14.53-65.18v-104.62l99.64-65.6v151.54c0,15.78,3.18,28.64,9.55,38.61,6.36,9.96,14.39,17.64,24.08,23.04,9.68,5.39,20.4,9.06,32.18,11,11.76,1.94,22.9,2.91,33.42,2.91,11.34,0,22.83-1.11,34.46-3.32,11.62-2.22,22.14-6.09,31.55-11.62,9.4-5.54,17.08-13.22,23.04-23.04,5.95-9.83,8.93-22.34,8.93-37.57v-256.99Zm-50.23-78.88c0,6.09-1.18,11.83-3.53,17.23-2.36,5.4-5.61,10.17-9.75,14.32-4.15,4.15-9,7.41-14.53,9.75-5.54,2.36-11.49,3.53-17.85,3.53s-12.39-1.17-18.06-3.53c-5.67-2.35-10.58-5.61-14.74-9.75-4.15-4.15-7.41-8.93-9.75-14.32-2.36-5.39-3.53-11.14-3.53-17.23,0-6.64,1.17-12.8,3.53-18.47,2.35-5.67,5.6-10.65,9.75-14.95,4.15-4.29,9.06-7.61,14.74-9.96,5.67-2.35,11.69-3.53,18.06-3.53s12.31,1.18,17.85,3.53c5.53,2.36,10.38,5.68,14.53,9.96,4.15,4.29,7.4,9.27,9.75,14.95,2.35,5.67,3.53,11.83,3.53,18.47Z"/>
      <path class="cls-1" d="m4896.13,1489.46v-469.92h99.64v413.87l-99.64,56.05Z"/>
      <path class="cls-1" d="m5050.16,1490.29c11.63-.83,22.42-2.84,32.38-6.02,9.96-3.19,18.68-7.62,26.16-13.28,7.47-5.68,13.28-12.66,17.44-20.97,4.15-8.3,6.23-18.12,6.23-29.47v-269.44h99.64v287.29c0,34.87-9.07,63.73-27.2,86.56-18.13,22.84-46.43,41.86-84.9,57.09l-69.75-91.75Zm178.52-418.07c0,6.09-1.25,11.83-3.74,17.23-2.49,5.4-5.88,10.17-10.17,14.32-4.29,4.15-9.27,7.41-14.94,9.75-5.68,2.36-11.7,3.53-18.06,3.53s-11.9-1.17-17.44-3.53c-5.54-2.35-10.38-5.61-14.53-9.75-4.15-4.15-7.47-8.93-9.96-14.32-2.49-5.39-3.74-11.14-3.74-17.23,0-6.64,1.25-12.8,3.74-18.47,2.49-5.67,5.82-10.65,9.96-14.95,4.15-4.29,8.99-7.61,14.53-9.96,5.53-2.35,11.34-3.53,17.44-3.53s12.38,1.18,18.06,3.53c5.67,2.36,10.65,5.68,14.94,9.96,4.29,4.29,7.68,9.27,10.17,14.95,2.49,5.67,3.74,11.83,3.74,18.47Z"/>
    </g>
  </g>
  <g>
    <path class="cls-1" d="m6676.86,1095.3l249.01,249.01-501.28,501.33c-40.26,40.27-105.55,40.27-145.82,0l-501.34-501.33,816.66-816.69c21.03-21.03,21.03-55.13,0-76.16h0c-21.03-21.03-55.13-21.03-76.16,0l-491.46,491.49-249.04-249.01,501.34-501.33c40.27-40.27,105.55-40.27,145.82,0l501.28,501.33-816.66,816.69c-21.03,21.03-21.03,55.13,0,76.16h0c21.03,21.03,55.13,21.03,76.16,0l491.49-491.49Z"/>
    <path class="cls-2" d="m5701.26,770.08l-176.13,176.13c-40.26,40.27-40.26,105.55,0,145.81l176.13,176.13,249.07-249.03-249.07-249.04Z"/>
    <path class="cls-2" d="m7178.16,946.21l-176.14-176.12-249,249.04,249,249.03,176.14-176.12c40.27-40.27,40.27-105.56,0-145.82Z"/>
  </g>
</svg>