<svg id="Layer_1" data-name="Layer 1" xmlns="http://www.w3.org/2000/svg" viewBox="0 0 5602 2118"><defs><style>.cls-1{fill:#1e1e1e;}</style></defs><path class="cls-1" d="M275,877H640.81V760.56H447.17L616.76,520.05q11.38-17.08,17.08-31.33a85.31,85.31,0,0,0,5.7-32,115.61,115.61,0,0,0-3.8-27.84l-7.59-7.6H272.45V537.78H456L286.38,778.28q-11.4,17.1-17.09,31.33a85.42,85.42,0,0,0-5.7,32,100.87,100.87,0,0,0,3.8,27.85Z"/><path class="cls-1" d="M834.31,771.85H953.46V877h134.17V541.51q0-77.61,5.07-100.16l-1.27-7.51q-25.32-5.64-59.81-9.08t-63-3.44q-69,0-114.88,11.58a149.1,149.1,0,0,0-77.22,47.26q-31.32,35.69-43.35,103.91L682.57,877H816.74Zm30.54-182.77q3.15-20,11.39-32.56a50.16,50.16,0,0,1,23.1-18.77q14.86-6.25,38.93-6.26c6.08,0,11.76.18,17.2.46a364.46,364.46,0,0,0-2,39.6V666.7H851.88Z"/><polygon class="cls-1" points="1307.88 622.89 1449.65 763.45 1449.65 877.02 1583.83 877.02 1583.83 421.32 1449.65 421.32 1449.65 588.9 1280.03 421.32 1173.7 421.32 1173.7 877.02 1307.88 877.02 1307.88 622.89"/><path class="cls-1" d="M1926.21,428.71h0c-28.59-8.22-64.93-12.39-108-12.39H1692.29V882H1818.2c48.24,0,87.38-5.45,116.32-16.18,29.61-11,52.08-30.66,66.77-58.48,14.48-27.41,21.82-66.53,21.82-116.28V606.57c0-54.37-8.85-95.87-26.31-123.34C1979.15,455.46,1955.4,437.12,1926.21,428.71Zm61.69,177.22v85.84c0,40-5.54,71.59-16.44,93.8-10.71,21.78-27.73,37.82-50.59,47.66-23.51,10-55.61,15.15-95.4,15.15h-98V450h98c45.12,0,79.88,6.29,103.31,18.7,23.12,12.17,38.87,29.33,46.81,51C1983.76,542,1987.9,571,1987.9,605.93Z"/><path class="cls-1" d="M2168.44,859.62c25.89,14.86,64,22.4,113.42,22.4s87.63-7.53,113.75-22.39c26.47-15.06,44.44-36.84,53.43-64.71,8.76-27.16,13.2-63.12,13.2-106.9V609c0-38-3.18-70.26-9.45-96-6.47-26.55-23.22-49.57-49.79-68.42h0c-26.44-18.74-67.2-28.25-121.14-28.25-53,0-93.2,9-119.4,26.88-26.38,18-43.16,40.32-49.86,66.44-6.49,25.3-9.79,56.74-9.79,93.43V688c0,43.78,4.33,79.74,12.86,106.86C2124.42,822.77,2142.18,844.55,2168.44,859.62Zm-30.38-170.28V607c0-33.73,2.53-61.6,7.51-82.83,4.77-20.4,17.52-38.14,37.9-52.72s53.61-22.11,98.39-22.11c45.21,0,78.55,7.44,99.06,22.11s33.25,32.45,38.25,53.09C2424.36,546,2427,573.78,2427,607v82.31c0,37.93-3.5,68.45-10.41,90.71-6.67,21.49-20.33,38.37-40.59,50.17-20.62,12-52.29,18.09-94.14,18.09s-73.4-6.08-93.79-18.08c-20-11.79-33.47-28.66-39.93-50.14C2141.45,757.87,2138.06,727.34,2138.06,689.34Z"/><path class="cls-1" d="M2888.14,794.92c8.76-27.16,13.2-63.12,13.2-106.9V609c0-38-3.18-70.26-9.44-96-6.48-26.55-23.23-49.57-49.8-68.42h0c-26.44-18.74-67.2-28.25-121.14-28.25-53,0-93.2,9-119.4,26.88-26.38,18-43.16,40.32-49.86,66.44-6.49,25.31-9.78,56.74-9.78,93.43V688c0,43.78,4.32,79.74,12.85,106.86,8.75,27.89,26.51,49.67,52.77,64.74,25.89,14.86,64.05,22.4,113.42,22.4s87.63-7.53,113.75-22.39C2861.18,844.57,2879.16,822.79,2888.14,794.92ZM2866.1,607v82.31c0,37.93-3.5,68.45-10.41,90.71-6.67,21.49-20.33,38.37-40.58,50.17-20.63,12-52.3,18.09-94.15,18.09s-73.4-6.08-93.78-18.08c-20-11.79-33.48-28.66-39.93-50.14-6.7-22.22-10.09-52.75-10.09-90.75V607c0-33.73,2.53-61.6,7.51-82.83,4.77-20.4,17.52-38.14,37.9-52.72s53.61-22.11,98.39-22.11c45.22,0,78.55,7.44,99.07,22.11,20.37,14.59,33.24,32.45,38.24,53.09C2863.46,546,2866.1,573.78,2866.1,607Z"/><path class="cls-1" d="M3293.29,882V795.23c0-35.66-10.78-62.67-32.05-80.27a103.53,103.53,0,0,0-34.06-18.24,101.41,101.41,0,0,0,23.22-8.28,75.18,75.18,0,0,0,36.54-40.82c6.85-17.69,10.33-41.28,10.33-70.12V543.68c0-31.71-4.3-57.09-12.76-75.42-8.71-18.86-22.42-32.44-40.75-40.35-17.81-7.69-42.17-11.59-72.41-11.59h-165.1V882h35.28V713.7h119.88c30.12,0,54.1,6.91,71.29,20.53s25.32,34.16,25.32,63V882Zm-71-210.75c-13.17,5.34-31,8-52.9,8H3041.53V450h126.53c25.29,0,45,3.35,58.56,10,13.37,6.49,22.46,16.12,27.78,29.47,5.49,13.77,8.28,32.92,8.28,56.93v33.81c0,27-3.63,48-10.78,62.36C3244.85,656.67,3235.16,666.06,3222.27,671.27Z"/><path class="cls-1" d="M3643.39,697.77a94.57,94.57,0,0,0-34-35.44c-13.74-8.25-31.83-16.27-53.7-23.79l-75.14-27a149.93,149.93,0,0,1-33.76-16.25,78.61,78.61,0,0,1-24.35-25.72c-6.36-10.55-9.58-23.64-9.58-38.9,0-21,3.25-37.6,9.68-49.3,6.33-11.54,15.59-19.53,28.3-24.4,13.08-5,30.8-7.57,52.68-7.57a328.76,328.76,0,0,1,63.79,6.16,296.65,296.65,0,0,1,57.16,17.15L3630,475l6.84-31L3633,442.4c-24.14-10.19-46.63-17.17-66.85-20.74a383.21,383.21,0,0,0-66-5.34c-26.68,0-49.14,3.79-66.72,11.26a84.91,84.91,0,0,0-41.59,37c-9.47,16.72-14.27,38.71-14.27,65.36,0,21.43,4.59,40.22,13.63,55.84s20.58,28.06,34.45,37.23a197,197,0,0,0,47,22.28l71,25.65c20,7.35,35.62,14.21,46.39,20.39a59.17,59.17,0,0,1,23.31,24c5.35,10.23,8.06,24.29,8.06,41.81,0,20.93-4,38.36-11.92,51.79-7.84,13.28-19.47,23.33-34.56,29.89-15.46,6.71-34.79,10.12-57.46,10.12a381.33,381.33,0,0,1-74.42-7.81c-26-5.18-48.11-11.52-65.84-18.81l-5.34-2.2-7.8,30.92,4.08,1.62a430,430,0,0,0,73.26,22,388.37,388.37,0,0,0,76.72,7.35c29.83,0,55.24-4.81,75.52-14.3,20.59-9.63,36.32-24,46.76-42.59,10.34-18.45,15.58-41.76,15.58-69.28,0-23.58-4.24-43.12-12.59-58.08Z"/><path class="cls-1" d="M467.38,1545.73a21.78,21.78,0,0,0-16.68,7.08,23.06,23.06,0,0,0-6.56,16.17,21.37,21.37,0,0,0,6.56,15.66q6.58,6.57,16.68,6.57A22.43,22.43,0,0,0,489.61,1569a23.07,23.07,0,0,0-6.57-16.17A20.63,20.63,0,0,0,467.38,1545.73Z"/><path class="cls-1" d="M680.62,1368.64q0,34.36-15.67,49.52t-50,15.16H300.63q-34.36,0-50-15.16t-15.66-48.5v-151.6l-33.36,22.24v127.33q0,99,95,99H612.91q101.05,0,101.06-99V1131.14H680.62Z"/><polygon class="cls-1" points="808.98 1485.87 842.33 1466.67 842.33 994.71 808.98 994.71 808.98 1485.87"/><path class="cls-1" d="M1939.84,1368.65q0,34.38-15.64,49.5c-10.46,10.15-27.1,15.17-50,15.17H1159.65V1131.17H1037.37q-100,0-100,96v144.51q0,94.95,100,95h89v39.45q0,106.1-121.28,106.1-21.19,0-30.29-2L997,1642.55a97.43,97.43,0,0,0,16.17,1q52.5,0,87.9-21.24,58.62-34.38,58.6-119.24v-36.41h713.49q100,0,100.08-100V1131.17h-33.38Zm-813.52,64.67h-97q-27.31,0-43-16.17t-15.69-44.47V1226.13q0-61.61,58.65-61.63h97Z"/><path class="cls-1" d="M1787.36,1545.76a23.33,23.33,0,0,0-17.16,7.06c-4.71,4.71-7.11,10.1-7.11,16.17a20.61,20.61,0,0,0,7.11,15.64,24.22,24.22,0,0,0,17.16,6.59,19.73,19.73,0,0,0,15.17-6.59,22.24,22.24,0,0,0,6.07-15.64,23,23,0,0,0-6.59-16.17C1797.67,1548.11,1792.75,1545.76,1787.36,1545.76Z"/><path class="cls-1" d="M2160.16,1074.56h-38.4q-33.36,0-33.33-30.29t35.37-30.35H2141v-19.2h-23.23q-22.2,0-36.36,13.65t-14.18,34.9c0,13.45,3.71,23.91,11.09,31.29H2046v19.2h114.21Z"/><path class="cls-1" d="M2477.54,1376.71q0,56.58-52.58,56.61h-60.64V994.72h-33.38v438.6h-93l-118.24-302.15h-36.36l119.23,302.15h-135.4v33.33H2428q38.39,0,60.12-23.23t21.76-64.67v-384h-32.33Z"/><path class="cls-1" d="M2916.69,1090.77a51,51,0,0,0,16.8,11.12,53.09,53.09,0,0,0,20.6,4,51.83,51.83,0,0,0,36.93-15.15,52.93,52.93,0,0,0,11.12-16.33,48.73,48.73,0,0,0,4-19.65,54,54,0,0,0-15.15-38.11,50.18,50.18,0,0,0-16.58-11.36,51.54,51.54,0,0,0-20.35-4,53.28,53.28,0,0,0-20.6,4,49.39,49.39,0,0,0-16.8,11.36,53.93,53.93,0,0,0-11.13,17,54.5,54.5,0,0,0-4,21.07,48.72,48.72,0,0,0,4,19.65A52.62,52.62,0,0,0,2916.69,1090.77Z"/><path class="cls-1" d="M3063.45,1437.79q0,26.06-10.18,42.85a74.93,74.93,0,0,1-26.27,26.27,111.8,111.8,0,0,1-36,13.26,210.16,210.16,0,0,1-39.3,3.79,234.76,234.76,0,0,1-38.11-3.32,112.22,112.22,0,0,1-36.69-12.54,76.6,76.6,0,0,1-27.46-26.28q-10.89-17-10.89-44V1265L2725,1339.79V1459.1q0,41.19,16.57,74.33a166.42,166.42,0,0,0,46.63,56.81q30.06,23.67,71.49,36.45t91.14,12.78a288.08,288.08,0,0,0,49.47-4.49,307.74,307.74,0,0,0,50.89-13.5,254.86,254.86,0,0,0,48.05-23.19,178.15,178.15,0,0,0,40.25-33.85,156.33,156.33,0,0,0,27.45-44.74q10.18-25.11,10.18-55.87l.95-319.09H3063.45Z"/><polygon class="cls-1" points="3267.97 1530.59 3381.6 1466.67 3381.6 994.72 3267.97 994.72 3267.97 1530.59"/><path class="cls-1" d="M3573.81,1101.89a50.15,50.15,0,0,0,19.88,4,53.16,53.16,0,0,0,20.6-4,54.16,54.16,0,0,0,28.64-27.45,46.37,46.37,0,0,0,4.26-19.65,51.83,51.83,0,0,0-4.26-21.07,55.6,55.6,0,0,0-11.6-17,52.21,52.21,0,0,0-17-11.36,53.35,53.35,0,0,0-20.6-4,50.68,50.68,0,0,0-36.45,15.39,57.5,57.5,0,0,0-11.37,17,51.83,51.83,0,0,0-4.26,21.07,46.37,46.37,0,0,0,4.26,19.65,56.25,56.25,0,0,0,11.37,16.33A51.61,51.61,0,0,0,3573.81,1101.89Z"/><path class="cls-1" d="M3537.36,1452q0,19.41-7.11,33.61a67.6,67.6,0,0,1-19.88,23.91,98.59,98.59,0,0,1-29.83,15.15,158.16,158.16,0,0,1-36.93,6.86l79.54,104.63q65.8-26,96.81-65.1t31-98.71V1144.74H3537.36Z"/><path class="cls-1" d="M4517.46,1587.77a52.7,52.7,0,0,1-74.51,0h0a52.68,52.68,0,0,1,0-74.5l798.93-799L4751.49,223.86a100.85,100.85,0,0,0-142.65,0L4118.39,714.3,4362,957.91l480.79-480.82a52.68,52.68,0,0,1,74.5,0h0a52.67,52.67,0,0,1,0,74.5l-798.93,799L4608.84,1841a100.86,100.86,0,0,0,142.65,0l490.39-490.44L4998.28,1107Z"/><path class="cls-1" d="M4043.87,788.79,3871.56,961.1a100.87,100.87,0,0,0,0,142.65l172.31,172.3,243.66-243.63Z"/><path class="cls-1" d="M5488.7,961.1,5316.38,788.79l-243.59,243.63,243.59,243.63,172.32-172.3A100.85,100.85,0,0,0,5488.7,961.1Z"/></svg>