<svg width="5001" height="1713" xmlns="http://www.w3.org/2000/svg" data-name="Layer 1">

 <g>
  <title>Layer 1</title>
  <g id="svg_1">
   <g id="svg_2">
    <path id="svg_3" fill="#b78364" d="m364.09,440.8825c6.66,-9.99 11.65,-19.15 14.98,-27.47c3.33,-8.32 5,-17.66 5,-28.03c0,-7.4 -1.11,-15.54 -3.33,-24.42l-6.66,-6.66l-311.92,0l0,102.13l160.92,0l-148.71,210.91c-6.66,9.99 -11.66,19.15 -14.99,27.47c-3.33,8.32 -5,17.67 -5,28.03c0,8.52 1.11,16.65 3.33,24.42l6.66,6.66l320.8,0l0,-102.12l-169.81,0l148.72,-210.91l0.01,-0.01z" class="cls-1"/>
    <path id="svg_4" fill="#b78364" d="m727.89,357.3225c-20.17,-2 -38.57,-3.02 -55.22,-3.02c-40.33,0 -73.92,3.39 -100.74,10.16c-26.83,6.78 -49.4,20.58 -67.71,41.44c-18.31,20.86 -30.99,51.24 -38.02,91.12l-44.4,256.89l117.66,0l15.41,-92.22l104.48,0l0,92.22l117.66,0l0,-294.22c0,-45.37 1.47,-74.65 4.44,-87.83l-1.11,-6.58c-14.8,-3.3 -32.29,-5.95 -52.45,-7.96zm-157.62,212.16l11.37,-68.07c1.85,-11.71 5.18,-21.22 9.99,-28.55c4.81,-7.31 11.56,-12.8 20.26,-16.47c8.69,-3.65 20.06,-5.49 34.13,-5.49c5.33,0 10.31,0.16 15.08,0.41c-1.16,10.64 -1.76,22.2 -1.76,34.72l0,83.44l-89.07,0l0,0.01z" class="cls-1"/>
    <polygon id="svg_5" fill="#b78364" points="1094.480087890639,354.3025207519531 1094.480087890639,501.2624816894531 945.740097656264,354.3025207519531 852.490097656264,354.3025207519531 852.490097656264,753.9224853515625 970.150009765639,753.9224853515625 970.150009765639,531.0625 1094.480087890639,654.322509765625 1094.480087890639,753.9224853515625 1212.140000000014,753.9224853515625 1212.140000000014,354.3025207519531 1094.480087890639,354.3025207519531 " class="cls-1"/>
    <path id="svg_6" fill="#505b5e" d="m1511.18,364.9925c-24.68,-7.1 -55.84,-10.69 -93.51,-10.69l-106.03,0l0,399.61l106.03,0c41.94,0 75.43,-4.62 100.48,-13.91c25.05,-9.29 43.77,-25.68 56.2,-49.22c12.43,-23.53 18.63,-56.83 18.63,-99.93l0,-74.11c0,-47.02 -7.43,-82.28 -22.39,-105.81c-14.96,-23.53 -34.78,-38.85 -59.42,-45.95l0.01,0.01zm59.69,226.47c0,35.95 -4.96,64.02 -14.87,84.19c-9.91,20.17 -25.42,34.79 -46.57,43.89c-21.2,9.06 -49.64,13.64 -85.38,13.64l-90.29,0l0,-358.1l90.29,0c40.42,0 71.3,5.6 92.63,16.9c21.38,11.25 35.74,26.94 43.13,47.12c7.39,20.17 11.06,45.85 11.06,77.09l0,75.27z" class="cls-2"/>
    <path id="svg_7" fill="#505b5e" d="m1927.96,378.2725c-22.53,-15.97 -57.09,-23.97 -103.69,-23.97s-79.91,7.61 -102.24,22.81c-22.34,15.21 -36.32,33.78 -41.94,55.72c-5.63,21.95 -8.45,48.9 -8.45,80.85l0,74.5c0,38.11 3.69,68.92 11.07,92.39c7.38,23.49 22.14,41.58 44.28,54.29c22.13,12.7 54.56,19.05 97.28,19.05s75.24,-6.35 97.58,-19.05c22.33,-12.71 37.28,-30.8 44.86,-54.29c7.57,-23.48 11.36,-54.28 11.36,-92.39l0,-69.3c0,-33.11 -2.72,-60.83 -8.16,-83.16c-5.44,-22.32 -19.42,-41.48 -41.94,-57.46l-0.01,0.01zm27.96,211.07c0,33.88 -3.11,60.83 -9.32,80.85c-6.22,20.02 -18.74,35.51 -37.57,46.49c-18.85,10.97 -47.1,16.46 -84.76,16.46s-65.83,-5.49 -84.47,-16.46c-18.64,-10.97 -30.97,-26.46 -36.99,-46.49c-6.03,-20.01 -9.03,-46.97 -9.03,-80.85l0,-72.18c0,-30.03 2.23,-54.57 6.7,-73.63c4.46,-19.05 16.11,-35.32 34.95,-48.8c18.83,-13.47 48.44,-20.21 88.84,-20.21s70.58,6.74 89.42,20.21c18.83,13.48 30.58,29.84 35.24,49.09c4.66,19.25 6.99,43.7 6.99,73.34l0,72.18z" class="cls-2"/>
    <path id="svg_8" fill="#505b5e" d="m2313.02,378.2725c-22.53,-15.97 -57.09,-23.97 -103.69,-23.97s-79.91,7.61 -102.24,22.81c-22.34,15.21 -36.32,33.78 -41.94,55.72c-5.63,21.95 -8.45,48.9 -8.45,80.85l0,74.5c0,38.11 3.69,68.92 11.07,92.39c7.38,23.49 22.14,41.58 44.28,54.29c22.13,12.7 54.56,19.05 97.28,19.05s75.24,-6.35 97.58,-19.05c22.33,-12.71 37.28,-30.8 44.86,-54.29c7.57,-23.48 11.36,-54.28 11.36,-92.39l0,-69.3c0,-33.11 -2.72,-60.83 -8.16,-83.16c-5.44,-22.32 -19.42,-41.48 -41.94,-57.46l-0.01,0.01zm27.96,211.07c0,33.88 -3.11,60.83 -9.32,80.85c-6.22,20.02 -18.74,35.51 -37.57,46.49c-18.85,10.97 -47.1,16.46 -84.76,16.46s-65.83,-5.49 -84.47,-16.46c-18.64,-10.97 -30.97,-26.46 -36.99,-46.49c-6.03,-20.01 -9.03,-46.97 -9.03,-80.85l0,-72.18c0,-30.03 2.23,-54.57 6.7,-73.63c4.46,-19.05 16.11,-35.32 34.95,-48.8c18.83,-13.47 48.44,-20.21 88.84,-20.21s70.58,6.74 89.42,20.21c18.83,13.48 30.58,29.84 35.24,49.09c4.66,19.25 6.99,43.7 6.99,73.34l0,72.18z" class="cls-2"/>
    <path id="svg_9" fill="#505b5e" d="m2666.05,364.1125c-15.14,-6.54 -35.74,-9.81 -61.76,-9.81l-140.4,0l0,399.61l22.16,0l0,-147.6l109.52,0c27.57,0 49.28,6.3 65.24,18.96c15.92,12.65 23.86,32.22 23.86,58.7l0,69.95l22.16,0l0,-71.72c0,-30.02 -8.86,-52.39 -26.52,-67.01c-10.78,-8.92 -24.45,-15.08 -41.06,-18.58c-3.12,-0.65 -6.42,-1.22 -9.77,-1.68c3.4,-0.23 6.65,-0.61 9.77,-1.03c12.98,-1.73 23.77,-4.81 32.35,-9.25c14.13,-7.28 24.13,-18.45 29.96,-33.48c5.83,-15.04 8.76,-34.98 8.76,-59.91l0,-29.65c0,-27.27 -3.58,-48.7 -10.78,-64.3c-7.2,-15.6 -18.35,-26.66 -33.49,-33.2zm22.71,129.53c0,24.51 -3.3,43.38 -9.91,56.64c-6.61,13.21 -16.01,22.32 -28.26,27.27c-12.2,4.95 -28.22,7.38 -48.04,7.38l-116.49,0l0,-209.85l115.35,0c22.89,0 40.65,3.04 53.27,9.2c12.62,6.12 21.47,15.5 26.52,28.16c5.05,12.66 7.57,29.84 7.57,51.55l0,29.65l-0.01,0z" class="cls-2"/>
    <path id="svg_10" fill="#505b5e" d="m3014.41,598.8625c-6.99,-12.51 -16.41,-22.32 -28.25,-29.45c-11.85,-7.12 -27.29,-13.95 -46.31,-20.5l-65.83,-23.67c-11.27,-3.85 -21.46,-8.75 -30.58,-14.73c-9.13,-5.96 -16.7,-13.95 -22.72,-23.96c-6.03,-10.01 -9.03,-22.14 -9.03,-36.38c0,-19.25 3,-34.36 9.03,-45.34c6.02,-10.97 15.05,-18.77 27.09,-23.38c12.03,-4.62 27.96,-6.93 47.77,-6.93s38.35,1.83 56.8,5.49c18.44,3.66 35.44,8.76 50.98,15.3l4.08,-18.48c-20.97,-8.85 -40.2,-14.82 -57.67,-17.9c-17.47,-3.08 -36.51,-4.62 -57.09,-4.62c-22.92,0 -41.85,3.18 -56.8,9.53c-14.95,6.35 -26.41,16.56 -34.37,30.61c-7.96,14.06 -11.94,32.44 -11.94,55.15c0,18.1 3.79,33.69 11.36,46.77c7.58,13.09 17.19,23.49 28.84,31.18c11.65,7.71 25.05,14.06 40.2,19.05l62.33,22.52c17.86,6.55 31.65,12.61 41.36,18.19c9.7,5.58 17.08,13.19 22.14,22.81c5.04,9.63 7.57,22.52 7.57,38.69c0,19.25 -3.7,35.14 -11.07,47.64c-7.38,12.51 -18.16,21.85 -32.33,28c-14.18,6.16 -31.56,9.24 -52.14,9.24s-43.02,-2.31 -66.12,-6.93c-23.11,-4.62 -42.62,-10.19 -58.54,-16.74l-4.66,18.48c21.35,8.47 42.53,14.83 63.49,19.06c20.97,4.23 43.11,6.35 66.41,6.35c25.63,0 47.09,-4.04 64.37,-12.13c17.28,-8.08 30.29,-19.92 39.03,-35.51c8.74,-15.59 13.11,-35.13 13.11,-58.62c0,-20.01 -3.49,-36.28 -10.48,-48.8l-0.03,0.01z" class="cls-2"/>
   </g>
   <g id="svg_11">
    <path id="svg_12" fill="#505b5e" d="m233.09,1340.3325c-5.91,0 -10.78,2.07 -14.62,6.2c-3.84,4.14 -5.76,8.86 -5.76,14.18s1.92,9.9 5.76,13.74c3.84,3.84 8.71,5.76 14.62,5.76c5.32,0 9.9,-1.92 13.74,-5.76c3.84,-3.84 5.76,-8.42 5.76,-13.74s-1.92,-10.05 -5.76,-14.18c-3.84,-4.14 -8.42,-6.2 -13.74,-6.2z" class="cls-2"/>
    <path id="svg_13" fill="#505b5e" d="m420.09,976.7725l0,208.27c0,20.09 -4.58,34.56 -13.74,43.43c-9.16,8.86 -23.78,13.29 -43.87,13.29l-275.62,0c-20.09,0 -34.72,-4.43 -43.87,-13.29c-9.16,-8.86 -13.74,-23.04 -13.74,-42.54l0,-132.94l-29.25,19.5l0,111.66c0,57.9 27.77,86.85 83.31,86.85l277.4,0c59.08,0 88.62,-28.95 88.62,-86.85l0,-207.38l-29.24,0z" class="cls-2"/>
    <path id="svg_14" fill="#505b5e" d="m561.9,1271.0025l-29.25,16.84l0,-430.71l29.25,0l0,413.88l0,-0.01z" class="cls-2"/>
    <path id="svg_15" fill="#505b5e" d="m1524.34,976.7925l0,208.26c0,20.1 -4.59,34.55 -13.72,43.4c-9.18,8.9 -23.77,13.31 -43.86,13.31l-626.6,0l0,-264.96l-107.22,0c-58.5,0 -87.72,28.03 -87.72,84.19l0,126.72c0,55.52 29.23,83.27 87.72,83.27l78,0l0,34.59c0,62.03 -35.47,93.05 -106.35,93.05c-12.39,0 -21.24,-0.6 -26.57,-1.79l19.5,28.4c2.94,0.55 7.66,0.87 14.18,0.87c30.69,0 56.39,-6.19 77.08,-18.63c34.27,-20.1 51.39,-54.92 51.39,-104.56l0,-31.93l625.68,0c58.5,0 87.77,-29.23 87.77,-87.73l0,-206.47l-29.27,0l-0.01,0.01zm-713.41,264.96l-85.06,0c-15.97,0 -28.54,-4.72 -37.67,-14.18c-9.18,-9.45 -13.76,-22.44 -13.76,-39l0,-128.51c0,-36.02 17.16,-54.05 51.43,-54.05l85.06,0l0,235.74z" class="cls-2"/>
    <path id="svg_16" fill="#505b5e" d="m1403.47,1346.5525c-3.81,-4.13 -8.12,-6.19 -12.85,-6.19c-5.92,0 -10.92,2.06 -15.05,6.19c-4.13,4.13 -6.24,8.85 -6.24,14.18s2.11,9.91 6.24,13.72c4.13,3.85 9.13,5.78 15.05,5.78c5.32,0 9.77,-1.93 13.31,-5.78c3.53,-3.81 5.32,-8.4 5.32,-13.72s-1.93,-10.05 -5.78,-14.18z" class="cls-2"/>
    <path id="svg_17" fill="#505b5e" d="m1683.87,927.1525c-19.5,0 -29.23,-8.85 -29.23,-26.57s10.32,-26.61 31.02,-26.61l15.05,0l0,-16.84l-20.37,0c-12.98,0 -23.63,3.99 -31.89,11.97c-8.3,7.98 -12.43,18.17 -12.43,30.6c0,11.79 3.26,20.97 9.73,27.44l-28.35,0l0,16.84l100.16,0l0,-16.84l-33.68,0l-0.01,0.01z" class="cls-2"/>
    <path id="svg_18" fill="#505b5e" d="m2024.22,857.1325l0,336.77c0,24.23 -6.38,43.13 -19.09,56.71c-12.71,13.58 -30.28,20.37 -52.72,20.37l-316.4,0l0,-29.23l118.74,0l-104.56,-264.96l31.89,0l103.69,264.96l81.53,0l0,-384.62l29.27,0l0,384.62l53.18,0c30.74,0 46.11,-16.56 46.11,-49.64l0,-334.98l28.36,0z" class="cls-2"/>
    <path id="svg_19" fill="#b78364" d="m2509.67,988.6925l100.47,0l-0.83,279.82c0,17.99 -2.98,34.32 -8.93,48.99c-5.95,14.66 -13.98,27.74 -24.08,39.23c-10.11,11.48 -21.87,21.38 -35.29,29.68c-13.43,8.3 -27.47,15.08 -42.14,20.34c-14.67,5.26 -29.55,9.2 -44.63,11.83c-15.09,2.63 -29.54,3.94 -43.38,3.94c-29.07,0 -55.71,-3.73 -79.92,-11.21c-24.22,-7.47 -45.12,-18.13 -62.69,-31.97c-17.58,-13.84 -31.21,-30.45 -40.89,-49.82c-9.69,-19.38 -14.53,-41.1 -14.53,-65.18l0,-104.62l99.64,-65.6l0,151.54c0,15.78 3.18,28.64 9.55,38.61c6.36,9.96 14.39,17.64 24.08,23.04c9.68,5.39 20.4,9.06 32.18,11c11.76,1.94 22.9,2.91 33.42,2.91c11.34,0 22.83,-1.11 34.46,-3.32c11.62,-2.22 22.14,-6.09 31.55,-11.62c9.4,-5.54 17.08,-13.22 23.04,-23.04c5.95,-9.83 8.93,-22.34 8.93,-37.57l0,-256.99l-0.01,0.01zm-50.23,-78.88c0,6.09 -1.18,11.83 -3.53,17.23c-2.36,5.4 -5.61,10.17 -9.75,14.32c-4.15,4.15 -9,7.41 -14.53,9.75c-5.54,2.36 -11.49,3.53 -17.85,3.53s-12.39,-1.17 -18.06,-3.53c-5.67,-2.35 -10.58,-5.61 -14.74,-9.75c-4.15,-4.15 -7.41,-8.93 -9.75,-14.32c-2.36,-5.39 -3.53,-11.14 -3.53,-17.23c0,-6.64 1.17,-12.8 3.53,-18.47c2.35,-5.67 5.6,-10.65 9.75,-14.95c4.15,-4.29 9.06,-7.61 14.74,-9.96c5.67,-2.35 11.69,-3.53 18.06,-3.53s12.31,1.18 17.85,3.53c5.53,2.36 10.38,5.68 14.53,9.96c4.15,4.29 7.4,9.27 9.75,14.95c2.35,5.67 3.53,11.83 3.53,18.47z" class="cls-1"/>
    <path id="svg_20" fill="#b78364" d="m2689.02,1327.0525l0,-469.92l99.64,0l0,413.87l-99.64,56.05z" class="cls-1"/>
    <path id="svg_21" fill="#b78364" d="m2843.05,1327.8825c11.63,-0.83 22.42,-2.84 32.38,-6.02c9.96,-3.19 18.68,-7.62 26.16,-13.28c7.47,-5.68 13.28,-12.66 17.44,-20.97c4.15,-8.3 6.23,-18.12 6.23,-29.47l0,-269.44l99.64,0l0,287.29c0,34.87 -9.07,63.73 -27.2,86.56c-18.13,22.84 -46.43,41.86 -84.9,57.09l-69.75,-91.75l0,-0.01zm178.52,-418.07c0,6.09 -1.25,11.83 -3.74,17.23c-2.49,5.4 -5.88,10.17 -10.17,14.32c-4.29,4.15 -9.27,7.41 -14.94,9.75c-5.68,2.36 -11.7,3.53 -18.06,3.53s-11.9,-1.17 -17.44,-3.53c-5.54,-2.35 -10.38,-5.61 -14.53,-9.75c-4.15,-4.15 -7.47,-8.93 -9.96,-14.32c-2.49,-5.39 -3.74,-11.14 -3.74,-17.23c0,-6.64 1.25,-12.8 3.74,-18.47c2.49,-5.67 5.82,-10.65 9.96,-14.95c4.15,-4.29 8.99,-7.61 14.53,-9.96c5.53,-2.35 11.34,-3.53 17.44,-3.53s12.38,1.18 18.06,3.53c5.67,2.36 10.65,5.68 14.94,9.96c4.29,4.29 7.68,9.27 10.17,14.95c2.49,5.67 3.74,11.83 3.74,18.47z" class="cls-1"/>
   </g>
  </g>
  <g id="svg_22">
   <path id="svg_23" fill="#b78364" d="m4469.75,932.8925l249.01,249.01l-501.28,501.33c-40.26,40.27 -105.55,40.27 -145.82,0l-501.34,-501.33l816.66,-816.69c21.03,-21.03 21.03,-55.13 0,-76.16l0,0c-21.03,-21.03 -55.13,-21.03 -76.16,0l-491.46,491.49l-249.04,-249.01l501.34,-501.33c40.27,-40.27 105.55,-40.27 145.82,0l501.28,501.33l-816.66,816.69c-21.03,21.03 -21.03,55.13 0,76.16l0,0c21.03,21.03 55.13,21.03 76.16,0l491.49,-491.49z" class="cls-1"/>
   <path id="svg_24" fill="#505b5e" d="m3494.15,607.6725l-176.13,176.13c-40.26,40.27 -40.26,105.55 0,145.81l176.13,176.13l249.07,-249.03l-249.07,-249.04z" class="cls-2"/>
   <path id="svg_25" fill="#505b5e" d="m4971.05,783.8025l-176.14,-176.12l-249,249.04l249,249.03l176.14,-176.12c40.27,-40.27 40.27,-105.56 0,-145.82l0,-0.01z" class="cls-2"/>
  </g>
 </g>
</svg>