<svg id="Layer_1" data-name="Layer 1" xmlns="http://www.w3.org/2000/svg" viewBox="0 0 328.85 72.9"><defs><style>.cls-1{fill:#b78364;}.cls-2{fill:none;stroke:#b78364;stroke-miterlimit:10;stroke-width:3px;}</style></defs><path class="cls-1" d="M142.35,45.52H154v3.55H137.9V23.48h4.45Z"/><path class="cls-1" d="M165.34,49.42a8.81,8.81,0,0,1-6.58-2.56,9.23,9.23,0,0,1-2.53-6.81v-.53a11.42,11.42,0,0,1,1.1-5.08A8.27,8.27,0,0,1,160.42,31a8.08,8.08,0,0,1,4.43-1.25,7.43,7.43,0,0,1,6,2.48q2.11,2.48,2.12,7v1.72H160.54a5.72,5.72,0,0,0,1.57,3.73A4.74,4.74,0,0,0,165.58,46a5.8,5.8,0,0,0,4.79-2.37l2.3,2.19a7.7,7.7,0,0,1-3,2.65A9.51,9.51,0,0,1,165.34,49.42Zm-.51-16.29A3.6,3.6,0,0,0,162,34.36a6.38,6.38,0,0,0-1.38,3.42h8.14v-.31a5.32,5.32,0,0,0-1.14-3.25A3.59,3.59,0,0,0,164.83,33.13Z"/><path class="cls-1" d="M187.65,49.07a6.44,6.44,0,0,1-.5-1.78,7.18,7.18,0,0,1-9.66.5,5.24,5.24,0,0,1-1.82-4,5.41,5.41,0,0,1,2.26-4.66,10.91,10.91,0,0,1,6.46-1.63H187V36.2a3.33,3.33,0,0,0-.82-2.36,3.29,3.29,0,0,0-2.52-.89,3.74,3.74,0,0,0-2.39.73,2.26,2.26,0,0,0-.93,1.85h-4.27a4.68,4.68,0,0,1,1-2.92,6.92,6.92,0,0,1,2.82-2.14,10,10,0,0,1,4-.77,8,8,0,0,1,5.32,1.68,6,6,0,0,1,2,4.72v8.57a9.72,9.72,0,0,0,.72,4.1v.3ZM183,46a4.82,4.82,0,0,0,2.38-.61A4.05,4.05,0,0,0,187,43.73V40.14h-2.3a6.24,6.24,0,0,0-3.57.83A2.66,2.66,0,0,0,180,43.3a2.5,2.5,0,0,0,.81,2A3.17,3.17,0,0,0,183,46Z"/><path class="cls-1" d="M205.72,34a11.14,11.14,0,0,0-1.74-.14,3.92,3.92,0,0,0-4,2.25v13h-4.27v-19h4.08l.1,2.13a4.8,4.8,0,0,1,4.29-2.48,4.08,4.08,0,0,1,1.51.24Z"/><path class="cls-1" d="M212.38,30.05l.12,2.2A6.84,6.84,0,0,1,218,29.7q5.94,0,6,6.8V49.07h-4.27V36.75a3.92,3.92,0,0,0-.78-2.68,3.29,3.29,0,0,0-2.56-.87,4.13,4.13,0,0,0-3.85,2.33V49.07h-4.27v-19Z"/><path class="cls-1" d="M241.42,30.05l.12,2A6.84,6.84,0,0,1,247,29.7q3.82,0,5.22,2.92a6.75,6.75,0,0,1,5.84-2.92,6,6,0,0,1,4.69,1.74,7.67,7.67,0,0,1,1.57,5.13v12.5h-4.27V36.69a3.81,3.81,0,0,0-.79-2.65,3.48,3.48,0,0,0-2.62-.84,3.54,3.54,0,0,0-2.38.78A4.1,4.1,0,0,0,253,36l0,13h-4.27V36.55q-.09-3.34-3.43-3.35a3.76,3.76,0,0,0-3.64,2.09V49.07h-4.27v-19Z"/><path class="cls-1" d="M267.92,39.38a11.16,11.16,0,0,1,1.11-5,8.1,8.1,0,0,1,3.11-3.45,8.8,8.8,0,0,1,4.61-1.2A8.28,8.28,0,0,1,283,32.18a9.74,9.74,0,0,1,2.59,6.57l0,1a11.33,11.33,0,0,1-1.08,5,7.94,7.94,0,0,1-3.1,3.43,8.81,8.81,0,0,1-4.65,1.21,8.24,8.24,0,0,1-6.44-2.68,10.29,10.29,0,0,1-2.42-7.15Zm4.28.37a7.66,7.66,0,0,0,1.21,4.6A3.93,3.93,0,0,0,276.78,46a3.88,3.88,0,0,0,3.37-1.69,8.47,8.47,0,0,0,1.2-4.94,7.55,7.55,0,0,0-1.24-4.57,3.94,3.94,0,0,0-3.36-1.68,3.9,3.9,0,0,0-3.32,1.66A8.28,8.28,0,0,0,272.2,39.75Z"/><path class="cls-1" d="M299.18,34a11,11,0,0,0-1.74-.14,3.92,3.92,0,0,0-4,2.25v13h-4.27v-19h4.08l.11,2.13a4.79,4.79,0,0,1,4.28-2.48,4.14,4.14,0,0,1,1.52.24Z"/><path class="cls-1" d="M309.92,49.42a8.81,8.81,0,0,1-6.58-2.56,9.23,9.23,0,0,1-2.53-6.81v-.53a11.42,11.42,0,0,1,1.1-5.08A8.27,8.27,0,0,1,305,31a8.08,8.08,0,0,1,4.43-1.25,7.43,7.43,0,0,1,6,2.48q2.11,2.48,2.12,7v1.72H305.12a5.72,5.72,0,0,0,1.57,3.73A4.74,4.74,0,0,0,310.16,46,5.8,5.8,0,0,0,315,43.64l2.3,2.19a7.7,7.7,0,0,1-3.05,2.65A9.51,9.51,0,0,1,309.92,49.42Zm-.51-16.29a3.6,3.6,0,0,0-2.84,1.23,6.38,6.38,0,0,0-1.38,3.42h8.14v-.31a5.25,5.25,0,0,0-1.14-3.25A3.59,3.59,0,0,0,309.41,33.13Z"/><line class="cls-2" x1="128.49" y1="39.19" x2="43.24" y2="39.19"/></svg>