<svg id="Layer_1" data-name="Layer 1" xmlns="http://www.w3.org/2000/svg" viewBox="0 0 5602 2118"><defs><style>.cls-1,.cls-2{fill:#fff;}.cls-2{stroke:#fff;stroke-miterlimit:10;stroke-width:10px;}</style></defs><path class="cls-1" d="M616.76,520.05q11.38-17.08,17.08-31.33a85.31,85.31,0,0,0,5.7-32,115.61,115.61,0,0,0-3.8-27.84l-7.59-7.6H272.45V537.78H456L286.38,778.28q-11.4,17.1-17.09,31.33a85.39,85.39,0,0,0-5.7,32,100.87,100.87,0,0,0,3.8,27.85L275,877H640.81V760.56H447.17Z"/><path class="cls-1" d="M1031.62,424.76q-34.5-3.42-63-3.44-69,0-114.88,11.58a149.1,149.1,0,0,0-77.22,47.26q-31.32,35.69-43.35,103.91L682.57,877H816.74l17.57-105.17H953.46V877h134.17V541.51q0-77.61,5.07-100.16l-1.27-7.51Q1066.11,428.2,1031.62,424.76ZM851.88,666.7l13-77.62q3.15-20,11.39-32.56a50.16,50.16,0,0,1,23.1-18.77q14.86-6.25,38.93-6.26c6.08,0,11.76.18,17.2.46a364.46,364.46,0,0,0-2,39.6V666.7Z"/><polygon class="cls-1" points="1449.65 421.32 1449.65 588.9 1280.03 421.32 1173.7 421.32 1173.7 877.02 1307.88 877.02 1307.88 622.89 1449.65 763.45 1449.65 877.02 1583.83 877.02 1583.83 421.32 1449.65 421.32"/><path class="cls-2" d="M1924.83,433.51q-42.22-12.13-106.63-12.19H1697.29V877H1818.2q71.73,0,114.58-15.87T1996.87,805q21.27-40.26,21.24-113.95V606.57q0-80.43-25.53-120.66T1924.83,433.51Zm68.07,258.26q0,61.5-17,96t-53.1,50.06q-36.25,15.49-97.37,15.54h-103V445h103q69.15,0,105.64,19.27T1980.29,518q12.63,34.5,12.61,87.91Z"/><path class="cls-2" d="M2400.11,448.65q-38.54-27.31-118.25-27.33-78.39,0-116.58,26t-47.83,63.55q-9.64,37.53-9.63,92.19V688q0,65.21,12.62,105.36t50.49,61.91Q2208.79,877,2281.86,877t111.27-21.73q38.19-21.74,51.15-61.91t13-105.36V609q0-56.62-9.3-94.83T2400.11,448.65ZM2432,689.34q0,58-10.63,92.19t-42.85,53q-32.23,18.76-96.66,18.77t-96.32-18.77q-31.89-18.76-42.18-53t-10.3-92.19V607q0-51.37,7.64-84t39.86-55.64q32.21-23.06,101.3-23.05,69.75,0,102,23.05t40.2,56q8,32.94,8,83.64Z"/><path class="cls-2" d="M2839.21,448.65q-38.53-27.31-118.25-27.33-78.39,0-116.58,26t-47.83,63.55q-9.65,37.53-9.63,92.19V688q0,65.21,12.62,105.36T2610,855.29Q2647.89,877,2721,877t111.27-21.73q38.19-21.74,51.15-61.91t13-105.36V609q0-56.62-9.3-94.83T2839.21,448.65Zm31.89,240.69q0,58-10.63,92.19t-42.85,53q-32.23,18.76-96.66,18.77t-96.32-18.77q-31.89-18.76-42.18-53t-10.3-92.19V607q0-51.37,7.64-84t39.86-55.64q32.21-23.06,101.3-23.05,69.75,0,102,23.05t40.19,56q8,32.94,8,83.64Z"/><path class="cls-2" d="M3241.78,432.5q-25.91-11.17-70.43-11.18h-160.1V877h25.28V708.7h124.88q47.18,0,74.4,21.62T3263,797.25V877h25.27V795.23q0-51.36-30.24-76.41-18.45-15.26-46.83-21.2c-3.56-.74-7.32-1.38-11.14-1.91,3.87-.27,7.58-.7,11.14-1.17q22.22-3,36.89-10.55,24.16-12.45,34.16-38.18t10-68.31V543.68q0-46.63-12.3-73.32T3241.78,432.5Zm25.9,147.71q0,41.94-11.3,64.59t-32.23,31.1q-20.88,8.46-54.78,8.41H3036.53V445h131.53q39.17,0,60.74,10.49t30.24,32.1q8.64,21.66,8.64,58.79Z"/><path class="cls-2" d="M3639,700.21a89.09,89.09,0,0,0-32.22-33.59q-20.27-12.18-52.81-23.38l-75.07-27a154,154,0,0,1-34.87-16.79,83.3,83.3,0,0,1-25.91-27.33q-10.3-17.11-10.29-41.48,0-32.92,10.29-51.7T3449,452.27q20.58-7.9,54.48-7.9a332.2,332.2,0,0,1,64.76,6.26,299.82,299.82,0,0,1,58.13,17.44l4.65-21.07q-35.88-15.13-65.77-20.41a375.86,375.86,0,0,0-65.1-5.27q-39.19,0-64.77,10.86a79.66,79.66,0,0,0-39.19,34.91q-13.62,24-13.62,62.89,0,31,13,53.34t32.89,35.56a191.2,191.2,0,0,0,45.84,21.73l71.08,25.68q30.54,11.21,47.16,20.75a63.8,63.8,0,0,1,25.25,26q8.63,16.49,8.63,44.13,0,32.93-12.62,54.33t-36.87,31.93Q3552.66,854,3517.45,854a383.87,383.87,0,0,1-75.39-7.91q-39.54-7.89-66.76-19.09L3370,848a423.2,423.2,0,0,0,72.41,21.73,381.92,381.92,0,0,0,75.73,7.25q43.85,0,73.41-13.83t44.5-40.5Q3651,796,3651,755.85,3651,721.62,3639,700.21Z"/><path class="cls-1" d="M467.38,1545.73a21.78,21.78,0,0,0-16.68,7.08,23.06,23.06,0,0,0-6.56,16.17,21.37,21.37,0,0,0,6.56,15.66q6.58,6.57,16.68,6.57A22.45,22.45,0,0,0,489.62,1569a23.08,23.08,0,0,0-6.58-16.17A20.63,20.63,0,0,0,467.38,1545.73Z"/><path class="cls-1" d="M680.62,1131.14v237.5q0,34.36-15.67,49.52t-50,15.16H300.63q-34.36,0-50-15.16t-15.66-48.5v-151.6l-33.36,22.24v127.33q0,99,95,99H612.91q101.05,0,101.06-99V1131.14Z"/><path class="cls-1" d="M842.33,1466.67,809,1485.87V994.71h33.35Z"/><path class="cls-1" d="M1939.84,1131.17v237.48q0,34.38-15.64,49.5c-10.46,10.15-27.1,15.17-50,15.17H1159.65V1131.17H1037.37q-100,0-100,96v144.51q0,94.95,100,95h89v39.45q0,106.1-121.28,106.1-21.19,0-30.29-2L997,1642.55a97.43,97.43,0,0,0,16.17,1q52.5,0,87.9-21.24,58.62-34.38,58.6-119.24v-36.41h713.49q100,0,100.08-100V1131.17Zm-813.52,302.15h-97q-27.31,0-43-16.17t-15.69-44.47V1226.13q0-61.61,58.65-61.63h97Z"/><path class="cls-1" d="M1802,1552.82c-4.34-4.71-9.26-7.06-14.65-7.06a23.33,23.33,0,0,0-17.16,7.06c-4.71,4.71-7.11,10.1-7.11,16.17a20.61,20.61,0,0,0,7.11,15.64,24.22,24.22,0,0,0,17.16,6.59,19.73,19.73,0,0,0,15.17-6.59,22.24,22.24,0,0,0,6.07-15.64A23,23,0,0,0,1802,1552.82Z"/><path class="cls-1" d="M2121.76,1074.56q-33.36,0-33.33-30.29t35.37-30.35H2141v-19.2h-23.23q-22.2,0-36.36,13.65t-14.18,34.9c0,13.45,3.71,23.91,11.09,31.29H2046v19.2h114.21v-19.2Z"/><path class="cls-1" d="M2509.87,994.72v384q0,41.43-21.76,64.67T2428,1466.65h-360.8v-33.33h135.4l-119.23-302.15h36.36L2238,1433.32h93V994.72h33.38v438.6H2425q52.58,0,52.58-56.61v-382Z"/><path class="cls-1" d="M3063.45,1144.74H3178l-.95,319.09q0,30.78-10.18,55.87a156.33,156.33,0,0,1-27.45,44.74,178.15,178.15,0,0,1-40.25,33.85,254.86,254.86,0,0,1-48.05,23.19,307.74,307.74,0,0,1-50.89,13.5,288.08,288.08,0,0,1-49.47,4.49q-49.72,0-91.14-12.78t-71.49-36.45a166.42,166.42,0,0,1-46.63-56.81q-16.58-33.15-16.57-74.33V1339.79l113.62-74.8v172.8q0,27,10.89,44a76.6,76.6,0,0,0,27.46,26.28,112.22,112.22,0,0,0,36.69,12.54,234.76,234.76,0,0,0,38.11,3.32,210.16,210.16,0,0,0,39.3-3.79,111.8,111.8,0,0,0,36-13.26,74.93,74.93,0,0,0,26.27-26.27q10.18-16.82,10.18-42.85Zm-57.28-90a48.73,48.73,0,0,1-4,19.65,52.93,52.93,0,0,1-11.12,16.33,51.83,51.83,0,0,1-36.93,15.15,53.09,53.09,0,0,1-20.6-4,51,51,0,0,1-16.8-11.12,52.62,52.62,0,0,1-11.13-16.33,48.72,48.72,0,0,1-4-19.65,54.5,54.5,0,0,1,4-21.07,53.93,53.93,0,0,1,11.13-17,49.39,49.39,0,0,1,16.8-11.36,53.28,53.28,0,0,1,20.6-4,51.54,51.54,0,0,1,20.35,4,50.18,50.18,0,0,1,16.58,11.36,54,54,0,0,1,15.15,38.11Z"/><path class="cls-1" d="M3268,1530.59V994.72H3381.6v472Z"/><path class="cls-1" d="M3443.61,1531.53a158.16,158.16,0,0,0,36.93-6.86,98.59,98.59,0,0,0,29.83-15.15,67.6,67.6,0,0,0,19.88-23.91q7.1-14.2,7.11-33.61V1144.74H3651v327.61q0,59.65-31,98.71t-96.81,65.1Zm203.58-476.74a46.37,46.37,0,0,1-4.26,19.65,54.16,54.16,0,0,1-28.64,27.45,53.16,53.16,0,0,1-20.6,4,50.15,50.15,0,0,1-19.88-4,51.61,51.61,0,0,1-16.57-11.12,56.25,56.25,0,0,1-11.37-16.33,46.37,46.37,0,0,1-4.26-19.65,51.83,51.83,0,0,1,4.26-21.07,57.5,57.5,0,0,1,11.37-17,50.68,50.68,0,0,1,36.45-15.39,53.35,53.35,0,0,1,20.6,4,52.21,52.21,0,0,1,17,11.36,55.6,55.6,0,0,1,11.6,17A51.83,51.83,0,0,1,3647.19,1054.79Z"/><path class="cls-1" d="M4998.28,1107l243.6,243.61L4751.49,1841a100.86,100.86,0,0,1-142.65,0l-490.45-490.45,798.93-799a52.67,52.67,0,0,0,0-74.5h0a52.68,52.68,0,0,0-74.5,0L4362,957.91,4118.39,714.3l490.45-490.44a100.85,100.85,0,0,1,142.65,0L5241.88,714.3l-798.93,799a52.68,52.68,0,0,0,0,74.5h0a52.7,52.7,0,0,0,74.51,0Z"/><path class="cls-1" d="M4043.87,788.79,3871.56,961.1a100.86,100.86,0,0,0,0,142.65l172.3,172.3,243.66-243.63Z"/><path class="cls-1" d="M5488.7,961.1,5316.38,788.79l-243.59,243.63,243.59,243.63,172.32-172.3A100.85,100.85,0,0,0,5488.7,961.1Z"/></svg>